<svg xmlns="http://www.w3.org/2000/svg" viewBox="0 0 1024 1024" role="img" aria-label="Favicon"><defs><clipPath id="bn-fav-clip"><path d="M 80 80 Q 80 40 120 40 L 904 40 Q 944 40 944 80 L 944 540 Q 944 760 720 920 Q 568 1000 512 1000 Q 456 1000 304 920 Q 80 760 80 540 Z"/></clipPath></defs><path d="M 80 80 Q 80 40 120 40 L 904 40 Q 944 40 944 80 L 944 540 Q 944 760 720 920 Q 568 1000 512 1000 Q 456 1000 304 920 Q 80 760 80 540 Z" fill="#0C0B09"/><g clip-path="url(#bn-fav-clip)"><g font-family="Inter, 'SF Pro Display', 'Helvetica Neue', system-ui, sans-serif" font-weight="900" font-size="600" fill="#F0EDE4" letter-spacing="-36" text-anchor="middle" dominant-baseline="central"><text x="512" y="542">DL</text></g></g></svg>
